<svg width="100" height="100" viewBox="0 0 100 100" fill="none" xmlns="http://www.w3.org/2000/svg">
<g clip-path="url(#clip0_210_6)">
<rect width="100" height="100" fill="#F6F5F7"/>
<path d="M49.5 66C61.9672 66 72.0714 55.9277 72.0714 43.5C72.0714 31.0723 61.9672 21 49.5 21C37.0328 21 26.9286 31.0723 26.9286 43.5C26.9286 55.9277 37.0328 66 49.5 66ZM65.3 71.625H62.3551C58.4404 73.418 54.0848 74.4375 49.5 74.4375C44.9152 74.4375 40.5772 73.418 36.6449 71.625H33.7C20.6156 71.625 10 82.207 10 95.25V102.562C10 107.221 13.7913 111 18.4643 111H80.5357C85.2087 111 89 107.221 89 102.562V95.25C89 82.207 78.3844 71.625 65.3 71.625Z" fill="#CECCD2"/>
</g>
<defs>
<clipPath id="clip0_210_6">
<rect width="100" height="100" fill="white"/>
</clipPath>
</defs>
</svg>
