<svg width="30" height="30" viewBox="0 0 30 30" fill="none" xmlns="http://www.w3.org/2000/svg">
<circle cx="15" cy="15" r="15" fill="white"/>
<path d="M15 15V4L23 8L15 12" stroke="#22E67D" stroke-width="2" stroke-linecap="round" stroke-linejoin="round"/>
<path d="M23.5607 12.2221C24.0928 13.8623 24.1426 15.6208 23.7041 17.2884C23.2656 18.956 22.3573 20.4626 21.0872 21.6288C19.8172 22.7951 18.2388 23.5719 16.5399 23.867C14.841 24.162 13.0932 23.9628 11.5042 23.293C9.91532 22.6233 8.55224 21.5112 7.57717 20.089C6.6021 18.6669 6.05609 16.9946 6.00409 15.2711C5.9521 13.5475 6.39631 11.8453 7.28388 10.367C8.17145 8.88869 9.46502 7.69644 11.0107 6.93213" stroke="#22E67D" stroke-width="2" stroke-linecap="round" stroke-linejoin="round"/>
<path d="M11.0024 11.9971C10.5013 12.6641 10.1751 13.4459 10.0534 14.2713C9.93179 15.0966 10.0186 15.9393 10.306 16.7225C10.5934 17.5057 11.0721 18.2046 11.6987 18.7554C12.3253 19.3063 13.0797 19.6916 13.8933 19.8762C14.7069 20.0609 15.5538 20.039 16.3567 19.8127C17.1597 19.5863 17.8933 19.1626 18.4906 18.5802C19.0879 17.9977 19.53 17.2751 19.7766 16.4781C20.0232 15.6811 20.0664 14.8351 19.9024 14.0171" stroke="#22E67D" stroke-width="2" stroke-linecap="round" stroke-linejoin="round"/>
</svg>
