<svg width="30" height="30" viewBox="0 0 30 30" fill="none" xmlns="http://www.w3.org/2000/svg">
<circle cx="15" cy="15" r="15" fill="white"/>
<path d="M14.2292 24.5965C8.55352 16.3684 7.5 15.5239 7.5 12.5C7.5 8.35785 10.8579 5 15 5C19.1421 5 22.5 8.35785 22.5 12.5C22.5 15.5239 21.4465 16.3684 15.7708 24.5965C15.3983 25.1345 14.6016 25.1345 14.2292 24.5965ZM15 15.625C16.7259 15.625 18.125 14.2259 18.125 12.5C18.125 10.7741 16.7259 9.375 15 9.375C13.2741 9.375 11.875 10.7741 11.875 12.5C11.875 14.2259 13.2741 15.625 15 15.625Z" fill="#1E152A"/>
</svg>
